<?xml version="1.0" standalone="no"?><!DOCTYPE svg PUBLIC "-//W3C//DTD SVG 1.1//EN" "http://www.w3.org/Graphics/SVG/1.1/DTD/svg11.dtd"><svg t="1544341806300" class="icon" style="" viewBox="0 0 1082 1024" version="1.1" xmlns="http://www.w3.org/2000/svg" p-id="6604" xmlns:xlink="http://www.w3.org/1999/xlink" width="211.328125" height="200"><defs><style type="text/css"></style></defs><path d="M539.489933 776.590604h-343.624161c-37.798658 0-72.161074-34.362416-72.161074-75.597315V295.516779c0-37.798658 34.362416-75.597315 72.161074-75.597316h542.926174c37.798658 0 72.161074 34.362416 72.161074 75.597316v34.362416c0 17.181208 10.308725 27.489933 27.489933 27.489933s27.489933-10.308725 27.489933-27.489933v-34.362416c0-68.724832-58.416107-130.577181-127.14094-130.577182H195.865772C127.14094 164.939597 68.724832 226.791946 68.724832 295.516779v405.47651c0 68.724832 58.416107 130.577181 127.14094 130.577181h343.624161c17.181208 0 27.489933-10.308725 27.489933-27.489933s-10.308725-27.489933-27.489933-27.489933z m305.825503-333.315436c-109.959732 0-202.738255 92.778523-202.738255 206.174496s92.778523 206.174497 202.738255 206.174497 202.738255-92.778523 202.738255-206.174497-92.778523-206.174497-202.738255-206.174496z m0 360.805369c-82.469799 0-151.194631-68.724832-151.194631-151.194631 0-27.489933 6.872483-51.543624 20.61745-72.161074 0 3.436242 3.436242 3.436242 3.436242 6.872483l202.738255 195.865772c-20.61745 10.308725-48.107383 20.61745-75.597316 20.61745z m120.268457-65.288591l-206.174497-199.302013c-3.436242-3.436242-6.872483-3.436242-10.308725-6.872483 27.489933-24.053691 58.416107-37.798658 96.214765-37.798658 82.469799 0 151.194631 68.724832 151.194631 151.194631-3.436242 37.798658-13.744966 68.724832-30.926174 92.778523z m-278.335571-377.986577c0-13.744966-10.308725-27.489933-24.053691-27.489933h-243.973154c-13.744966 0-24.053691 10.308725-24.053692 27.489933 0 13.744966 10.308725 27.489933 24.053692 27.489933h243.973154c10.308725-3.436242 24.053691-13.744966 24.053691-27.489933z m-371.114094 24.053691h20.61745c13.744966 0 24.053691-10.308725 24.053691-27.489932 0-13.744966-10.308725-27.489933-24.053691-27.489933h-20.61745c-13.744966 0-24.053691 10.308725-24.053691 27.489933s10.308725 27.489933 24.053691 27.489932z m-3.436241 140.885906h243.973154c13.744966 0 24.053691-10.308725 24.053691-27.489932 0-13.744966-10.308725-27.489933-24.053691-27.489933H312.697987c-13.744966 0-24.053691 10.308725-24.053692 27.489933 0 13.744966 10.308725 27.489933 24.053692 27.489932z m-58.416108-27.489932c0-13.744966-10.308725-27.489933-24.053691-27.489933h-20.61745c-13.744966 0-24.053691 10.308725-24.053691 27.489933 0 13.744966 10.308725 27.489933 24.053691 27.489932h20.61745c13.744966 0 24.053691-13.744966 24.053691-27.489932z m336.751678 120.268456h-243.973154c-13.744966 0-24.053691 10.308725-24.053692 27.489933 0 13.744966 10.308725 27.489933 24.053692 27.489933h243.973154c13.744966 0 24.053691-10.308725 24.053691-27.489933s-10.308725-27.489933-24.053691-27.489933z m-343.624161 51.543624h20.61745c13.744966 0 24.053691-10.308725 24.053691-27.489933 0-13.744966-10.308725-27.489933-24.053691-27.489933h-20.61745c-13.744966 0-24.053691 10.308725-24.053691 27.489933-3.436242 13.744966 10.308725 27.489933 24.053691 27.489933z" fill="#c8a06a" p-id="6605"></path></svg>