<?xml version="1.0" standalone="no"?><!DOCTYPE svg PUBLIC "-//W3C//DTD SVG 1.1//EN" "http://www.w3.org/Graphics/SVG/1.1/DTD/svg11.dtd"><svg t="1539429447118" class="icon" style="" viewBox="0 0 1024 1024" version="1.1" xmlns="http://www.w3.org/2000/svg" p-id="1310" xmlns:xlink="http://www.w3.org/1999/xlink" width="200" height="200"><defs><style type="text/css"></style></defs><path d="M930.875164 334.957227c-22.888676-53.955698-55.822791-102.855111-97.444977-144.45568-41.622187-41.622187-90.110862-74.522169-144.533049-97.376711C632.630613 69.346418 572.718649 57.457778 511.431111 57.457778c-61.300053 0-120.767147 11.889778-177.022293 35.667058-54.433564 23.310791-103.355733 56.667022-144.989298 98.288071-41.633564 41.600569-74.544924 90.044871-97.422222 144.467057C68.220018 391.635627 56.32 451.535076 56.32 512.802133c0 61.254542 11.900018 120.700018 36.132409 177.36704 22.878436 53.955698 55.800036 102.866489 97.422222 144.488676 41.622187 41.600569 90.099484 74.510791 144.533049 97.399467 55.801173 23.734044 115.723378 35.622684 177.023431 35.622684 61.733547 0 121.199502-12.333511 177.467165-36.089173 53.955698-22.888676 102.910862-55.800036 144.533048-97.400605 41.622187-41.599431 74.555164-90.065351 97.444978-144.467058 23.77728-56.221013 35.667058-115.666489 35.667058-177.376142-0.001138-61.723307-11.889778-121.156267-35.668196-177.389795z m-51.710862 332.389262c-20.11136 47.510187-48.933547 90.065351-85.511964 126.643769-36.598898 36.534044-79.132444 65.334613-126.688142 85.466453-48.97792 20.578987-101.110898 31.06816-155.089352 31.06816-53.955698 0-106.100053-10.489173-155.044977-31.06816-47.567076-20.13184-90.110862-48.932409-126.69952-85.466453-36.588658-36.57728-65.422222-79.133582-85.533583-126.643769-20.589227-48.934684-31.100018-101.044907-31.100017-154.999467 0-53.955698 10.510791-106.067058 31.100017-154.977849 20.11136-47.099449 48.477298-90.066489 85.067094-126.643769 36.611413-36.589796 79.14496-65.377849 126.722275-85.489208 48.922169-20.576711 101.066524-31.08864 155.044978-31.08864 53.955698 0 106.110293 10.511929 155.533085 31.08864 47.555698 20.11136 90.089244 48.900551 126.688142 85.489208 36.578418 36.57728 65.400604 79.088071 85.511964 126.643769 20.599467 48.911929 31.111396 101.022151 31.111396 154.977849 0 53.955698-10.510791 106.064782-31.111396 154.999467zM699.609316 485.047182L424.441173 334.791111c-21.965938-12.223147-49.677653 3.166436-49.677653 27.155342v301.422365c0 23.977529 27.710578 38.910862 49.677653 27.155342L700.097422 539.812978c21.467591-12.66688 21.467591-42.544924-0.488106-54.765796z" p-id="1311" fill="#ffffff"></path></svg>