<?xml version="1.0" encoding="utf-8"?>
<!-- Svg Vector Icons : http://www.sfont.cn -->
<!DOCTYPE svg PUBLIC "-//W3C//DTD SVG 1.1//EN" "http://www.w3.org/Graphics/SVG/1.1/DTD/svg11.dtd">
<svg version="1.1" xmlns="http://www.w3.org/2000/svg" xmlns:xlink="http://www.w3.org/1999/xlink" x="0px" y="0px" viewBox="0 0 1000 1000" enable-background="new 0 0 1000 1000" xml:space="preserve">
<metadata> Svg Vector Icons : http://www.sfont.cn </metadata>
<g><path d="M325.3,324.7v128.9h235.7v544.9L739.2,922V453.7h189.4L990,324.7H738.2V9.5H560.9v315.3H325.3z M10,420.4h63.5v558h226.6l59.4-125.9H255.8v-558H10V420.4z M96.6,15.5c-17.1,9.1-30.2,22.2-40.3,39.3c-10.1,17.1-15.1,35.3-14.1,53.4c-1,19.1,4,37.3,14.1,53.4c9.1,16.1,22.2,29.2,39.3,39.3c17.1,10.1,34.2,14.1,54.4,14.1c19.1,0,37.3-5,53.4-14.1c16.1-9.1,29.2-22.2,39.3-39.3c9.1-16.1,14.1-34.2,14.1-53.4s-5-37.3-15.1-54.4c-10.1-17.1-23.2-29.2-40.3-38.3C184.2,6.5,167.1,1.4,149,1.4C130.9,1.4,113.7,6.5,96.6,15.5z"/></g>
</svg>