<?xml version="1.0" standalone="no"?><!DOCTYPE svg PUBLIC "-//W3C//DTD SVG 1.1//EN" "http://www.w3.org/Graphics/SVG/1.1/DTD/svg11.dtd"><svg t="1539855983142" class="icon" style="" viewBox="0 0 1024 1024" version="1.1" xmlns="http://www.w3.org/2000/svg" p-id="1009" xmlns:xlink="http://www.w3.org/1999/xlink" width="200" height="200"><defs><style type="text/css"></style></defs><path d="M511.7 1024c-65.6 0-129.6-12.3-190.2-36.6-61.4-24.6-116.9-60.5-164.8-106.7C108.9 834.6 71 780.6 44.1 720.1 16.2 657.5 1.4 590.7 0.1 521.6c-1.3-69.1 11-136.4 36.5-200 24.6-61.4 60.5-116.9 106.7-164.8C189.4 108.9 243.4 71 303.9 44.1 366.5 16.2 433.3 1.4 502.4 0.1c69.1-1.3 136.4 11 200 36.5 61.4 24.6 116.9 60.5 164.8 106.7C915.1 189.4 953 243.5 979.9 304c27.9 62.6 42.7 129.4 44 198.5 1.3 69.1-11 136.4-36.5 200-24.6 61.4-60.5 116.9-106.7 164.8C834.6 915.2 780.5 953.1 720 980c-62.6 27.9-129.4 42.7-198.5 44h-9.8z m0.6-969.1c-2.9 0-5.9 0-8.8 0.1-61.7 1.2-121.3 14.4-177.2 39.2-54 24-102.2 57.9-143.4 100.7-41.2 42.8-73.2 92.3-95.2 147.1C64.8 398.8 53.9 458.8 55 520.6c1.2 61.7 14.4 121.3 39.2 177.2 24 54 57.9 102.2 100.7 143.4 42.8 41.2 92.3 73.2 147.1 95.2 56.8 22.8 116.8 33.7 178.5 32.6 61.7-1.2 121.3-14.4 177.2-39.2 54-24 102.2-57.9 143.4-100.7 41.2-42.8 73.2-92.3 95.2-147.1 22.8-56.8 33.7-116.8 32.6-178.5-1.2-61.7-14.4-121.3-39.2-177.2-24-54-57.9-102.2-100.7-143.4-42.8-41.2-92.3-73.2-147.1-95.2-54-21.8-111-32.8-169.6-32.8z" fill="" p-id="1010"></path><path d="M512 793.3c-5.5 0-10.3-0.8-15-2.4-4.7-2.4-9.5-5.5-12.6-8.6-4-4-7.1-7.9-8.7-12.6-2.4-4.8-3.2-10.2-3.2-15.8 0-10.2 3.9-20.5 11.8-27.6 14.2-14.9 40.1-14.9 55.1 0 7.9 7.2 11.8 17.4 11.8 27.6 0 5.5-0.8 11-3.2 15.8-1.6 4.7-4.7 8.6-8.7 12.6-6.8 7.1-17 11-27.3 11z m0-173.1c-15.2 0-27.5-12.3-27.5-27.5v-323c0-15.2 12.3-27.5 27.5-27.5s27.5 12.3 27.5 27.5v323c0 15.2-12.3 27.5-27.5 27.5z" fill="" p-id="1011"></path></svg>