<?xml version="1.0" standalone="no"?><!DOCTYPE svg PUBLIC "-//W3C//DTD SVG 1.1//EN" "http://www.w3.org/Graphics/SVG/1.1/DTD/svg11.dtd"><svg t="1544338894031" class="icon" style="" viewBox="0 0 1024 1024" version="1.1" xmlns="http://www.w3.org/2000/svg" p-id="4965" xmlns:xlink="http://www.w3.org/1999/xlink" width="200" height="200"><defs><style type="text/css"></style></defs><path d="M145.749333 540.444444h494.250667a42.666667 42.666667 0 0 0 0-85.333333H145.692444L334.506667 266.353778a42.666667 42.666667 0 0 0-60.302223-60.302222l-260.551111 260.551111A42.552889 42.552889 0 0 0 14.222222 529.521778l260.323556 260.323555a42.666667 42.666667 0 1 0 60.302222-60.302222L145.749333 540.444444zM981.333333 455.111111a42.666667 42.666667 0 1 0 0 85.333333 42.666667 42.666667 0 0 0 0-85.333333z m-170.666666 0a42.666667 42.666667 0 1 0 0 85.333333 42.666667 42.666667 0 0 0 0-85.333333z" fill="#ffffff" p-id="4966"></path></svg>